<svg width="73" height="49" viewBox="0 0 73 49" fill="none" xmlns="http://www.w3.org/2000/svg">
<path fill-rule="evenodd" clip-rule="evenodd" d="M48.1849 22.1037C47.949 28.5143 45.8678 33.7313 42.6812 37.3108C42.6441 37.3525 42.6124 37.3988 42.5844 37.4477C42.5822 37.4515 42.5799 37.4553 42.5777 37.4593C42.5532 37.5013 42.6386 37.371 42.6628 37.3342C42.6673 37.3272 42.6697 37.3237 42.6687 37.3252L42.6517 37.3513C42.1668 38.0983 41.6642 38.8139 41.1449 39.496C40.8743 39.8516 40.9897 40.3842 41.3949 40.5466C42.9809 41.1822 44.6386 41.5193 46.3443 41.5193C53.141 41.5193 59.174 36.1677 62.9559 27.8987C63.0997 27.5844 62.9893 27.2077 62.7048 27.0277L59.557 25.0368C59.1296 24.7665 59.138 24.1135 59.572 23.8554L71.907 16.5186C72.3452 16.258 72.8874 16.5945 72.8809 17.1228L72.6929 32.1424C72.6863 32.6709 72.1354 32.9924 71.7041 32.7194L68.9812 30.9974C68.6512 30.7887 68.2214 30.9254 68.0498 31.2875C63.1103 41.7174 55.0909 48.5 46.0375 48.5C42.3928 48.5 38.9157 47.4007 35.7395 45.4068C35.5192 45.2684 35.2427 45.2735 35.0267 45.4191C32.1132 47.3841 28.9269 48.4666 25.5883 48.4666C11.7324 48.4666 0.5 29.8213 0.5 6.82119C0.5 5.75002 0.524363 4.6883 0.572219 3.63747C0.594104 3.15691 0.605046 2.91664 0.659542 2.67273C0.888287 1.64895 1.74045 0.796525 2.72598 0.605653C2.96078 0.560179 3.21459 0.560179 3.72224 0.560179C4.41361 0.560179 4.7593 0.560179 5.01009 0.612252C6.15118 0.849181 6.93069 1.71714 7.08841 2.92637C7.12308 3.19213 7.10033 3.5938 7.05483 4.39711C6.98957 5.54944 6.95614 6.71865 6.95614 7.90182C6.95614 26.8459 15.5262 42.203 26.0981 42.203C27.3534 42.203 28.5804 41.9865 29.7682 41.5731C30.208 41.4201 30.319 40.8383 30.0024 40.4833C29.2333 39.6209 28.4949 38.6978 27.7901 37.7191C24.4154 34.1883 22.1264 28.9442 21.7374 22.1037C21.7374 11.0032 27.5259 0.5 34.8761 0.5C42.2263 0.5 48.1849 11.0032 48.1849 22.1037ZM42.6349 22.4786C42.6349 30.023 38.8232 36.6667 35.0681 36.6667C31.3131 36.6667 27.1175 30.023 27.1175 22.4786C27.1175 14.9342 31.3131 7.05935 35.0681 7.05935C38.8232 7.05935 42.6349 14.9342 42.6349 22.4786Z" fill="#2C2D95"/>
</svg>
